<svg xmlns="http://www.w3.org/2000/svg" xmlns:xlink="http://www.w3.org/1999/xlink" id="Layer_1" data-name="Layer 1" width="300" height="300.33" viewBox="0 0 300 300.33">
    <defs>
        <style>
      .cls-1 {
        fill: url(#linear-gradient);
      }

      .cls-2, .cls-38, .cls-42, .cls-50, .cls-51 {
        filter: url(#AI_GaussianBlur_4);
      }

      .cls-3 {
        fill: #4e5051;
      }

      .cls-34, .cls-4, .cls-9 {
        filter: url(#AI_GaussianBlur_7);
      }

      .cls-5 {
        fill: #74787a;
      }

      .cls-6 {
        fill: #7f8588;
      }

      .cls-7 {
        opacity: 0.95;
      }

      .cls-8 {
        fill: #8b9297;
      }

      .cls-9 {
        opacity: 0.85;
      }

      .cls-10 {
        fill: #75797b;
      }

      .cls-11 {
        fill: #767a7c;
      }

      .cls-12 {
        fill: #777b7d;
      }

      .cls-13 {
        fill: #787c7f;
      }

      .cls-14 {
        fill: #797d80;
      }

      .cls-15 {
        fill: #797e81;
      }

      .cls-16 {
        fill: #7a7f82;
      }

      .cls-17 {
        fill: #7b8083;
      }

      .cls-18 {
        fill: #7c8184;
      }

      .cls-19 {
        fill: #7d8285;
      }

      .cls-20 {
        fill: #7e8386;
      }

      .cls-21 {
        fill: #7e8487;
      }

      .cls-22 {
        fill: #808689;
      }

      .cls-23 {
        fill: #81878a;
      }

      .cls-24 {
        fill: #82878b;
      }

      .cls-25 {
        fill: #83888c;
      }

      .cls-26 {
        fill: #84898d;
      }

      .cls-27 {
        fill: #848a8f;
      }

      .cls-28 {
        fill: #858b90;
      }

      .cls-29 {
        fill: #868d91;
      }

      .cls-30 {
        fill: #878e92;
      }

      .cls-31 {
        fill: #888f93;
      }

      .cls-32 {
        fill: #899094;
      }

      .cls-33 {
        fill: #8a9196;
      }

      .cls-34 {
        opacity: 0.91;
      }

      .cls-35 {
        fill: #7e8385;
      }

      .cls-36 {
        opacity: 0.9;
      }

      .cls-37 {
        fill: #888e91;
      }

      .cls-38 {
        opacity: 0.56;
      }

      .cls-39 {
        fill: #5c5f61;
      }

      .cls-40 {
        fill: url(#linear-gradient-2);
      }

      .cls-41, .cls-53, .cls-54, .cls-56, .cls-58 {
        isolation: isolate;
      }

      .cls-41 {
        font-size: 33.44px;
        font-family: Seravek;
      }

      .cls-41, .cls-53, .cls-54, .cls-56, .cls-59 {
        fill: #010101;
      }

      .cls-42 {
        opacity: 0.63;
      }

      .cls-43 {
        fill: url(#linear-gradient-3);
      }

      .cls-44 {
        fill: url(#linear-gradient-4);
      }

      .cls-45 {
        fill: url(#linear-gradient-5);
      }

      .cls-46 {
        fill: #fff;
      }

      .cls-47 {
        fill: url(#linear-gradient-6);
      }

      .cls-48 {
        fill: url(#linear-gradient-7);
      }

      .cls-49 {
        fill: url(#linear-gradient-8);
      }

      .cls-50 {
        opacity: 0.4;
      }

      .cls-51 {
        opacity: 0.65;
      }

      .cls-52 {
        fill: #f5f7f5;
      }

      .cls-53 {
        font-size: 9.48px;
      }

      .cls-53, .cls-54, .cls-56, .cls-58 {
        font-family: Arial;
      }

      .cls-54 {
        font-size: 4.86px;
      }

      .cls-55 {
        fill: #020202;
      }

      .cls-56 {
        font-size: 5.47px;
      }

      .cls-57 {
        fill: #41403e;
      }

      .cls-58 {
        font-size: 4.33px;
        fill: #5c5d5d;
      }
    </style>
        <linearGradient id="linear-gradient" x1="-0.08" y1="300.25" x2="300.08" y2="0.08" gradientUnits="userSpaceOnUse">
            <stop offset="0" stop-color="#929ca3" />
            <stop offset="0.18" stop-color="#acb6bc" />
            <stop offset="0.48" stop-color="#c5ccd1" />
            <stop offset="0.87" stop-color="#f1f2f3" />
            <stop offset="1" stop-color="#fff" />
        </linearGradient>
        <filter id="AI_GaussianBlur_4" name="AI_GaussianBlur_4">
            <feGaussianBlur stdDeviation="4" />
        </filter>
        <filter id="AI_GaussianBlur_7" name="AI_GaussianBlur_7">
            <feGaussianBlur stdDeviation="7" />
        </filter>
        <linearGradient id="linear-gradient-2" x1="84.74" y1="97.95" x2="67.26" y2="197.05" gradientUnits="userSpaceOnUse">
            <stop offset="0" stop-color="#1c2225" />
            <stop offset="0.12" stop-color="#606467" />
            <stop offset="0.24" stop-color="#999b9d" />
            <stop offset="0.33" stop-color="#bebebf" />
            <stop offset="0.38" stop-color="#cacbcc" />
            <stop offset="0.54" stop-color="#d0d1cf" />
            <stop offset="1" stop-color="#d2d3d0" />
        </linearGradient>
        <linearGradient id="linear-gradient-3" x1="82.47" y1="86.97" x2="176.58" y2="95.21" gradientUnits="userSpaceOnUse">
            <stop offset="0" stop-color="#acb6bc" />
            <stop offset="0.03" stop-color="#a7b1b7" />
            <stop offset="0.07" stop-color="#9aa3a9" />
            <stop offset="0.11" stop-color="#838c91" />
            <stop offset="0.15" stop-color="#636b70" />
            <stop offset="0.17" stop-color="#52595e" />
            <stop offset="0.26" stop-color="#484f54" />
            <stop offset="0.36" stop-color="#434b4f" />
            <stop offset="0.74" stop-color="#8e9093" />
        </linearGradient>
        <linearGradient id="linear-gradient-4" x1="149.45" y1="38.3" x2="149.45" y2="259.7" gradientUnits="userSpaceOnUse">
            <stop offset="0" stop-color="#602b00" />
            <stop offset="0" stop-color="#672f02" />
            <stop offset="0.03" stop-color="#95490e" />
            <stop offset="0.05" stop-color="#b95d18" />
            <stop offset="0.07" stop-color="#d36b1f" />
            <stop offset="0.09" stop-color="#e37424" />
            <stop offset="0.1" stop-color="#e87725" />
            <stop offset="0.39" stop-color="#ffc713" />
            <stop offset="0.43" stop-color="#f9c219" />
            <stop offset="0.46" stop-color="#ebb71f" />
            <stop offset="0.48" stop-color="#daaa2c" />
            <stop offset="0.49" stop-color="#c19538" />
            <stop offset="0.51" stop-color="#a68044" />
            <stop offset="0.52" stop-color="#87694a" />
            <stop offset="0.53" stop-color="#67514b" />
            <stop offset="0.55" stop-color="#463847" />
            <stop offset="0.56" stop-color="#231c40" />
            <stop offset="0.56" stop-color="#15113e" />
            <stop offset="0.65" stop-color="#16143a" />
            <stop offset="0.86" stop-color="#1b1a36" />
            <stop offset="0.89" stop-color="#191832" />
            <stop offset="0.93" stop-color="#131226" />
            <stop offset="0.97" stop-color="#090912" />
            <stop offset="1" />
        </linearGradient>
        <linearGradient id="linear-gradient-5" x1="149.55" y1="147.4" x2="149.55" y2="273.5" gradientUnits="userSpaceOnUse">
            <stop offset="0" stop-color="#000013" />
            <stop offset="0.37" stop-color="#1b193e" />
            <stop offset="0.7" stop-color="#252340" />
            <stop offset="1" stop-color="#282740" />
        </linearGradient>
        <linearGradient id="linear-gradient-6" x1="197.94" y1="191.08" x2="248.26" y2="103.92" gradientUnits="userSpaceOnUse">
            <stop offset="0" stop-color="#1c2225" />
            <stop offset="0.01" stop-color="#242a2c" />
            <stop offset="0.03" stop-color="#303639" />
            <stop offset="0.06" stop-color="#373c3f" />
            <stop offset="0.12" stop-color="#393e41" />
            <stop offset="0.17" stop-color="#75787b" />
            <stop offset="0.31" stop-color="#cacbcc" />
            <stop offset="0.36" stop-color="#dadadb" />
            <stop offset="0.43" stop-color="#ebebeb" />
            <stop offset="0.52" stop-color="#f6f6f7" />
            <stop offset="0.65" stop-color="#fff" />
            <stop offset="1" stop-color="#fff" />
        </linearGradient>
        <linearGradient id="linear-gradient-7" x1="96.33" y1="65.97" x2="209.89" y2="131.53" gradientUnits="userSpaceOnUse">
            <stop offset="0" stop-color="#e87725" />
            <stop offset="0.15" stop-color="#eb8923" />
            <stop offset="0.4" stop-color="#f2a121" />
            <stop offset="0.63" stop-color="#f8b518" />
            <stop offset="0.84" stop-color="#fdc116" />
            <stop offset="1" stop-color="#ffc713" />
        </linearGradient>
        <linearGradient id="linear-gradient-8" x1="28" y1="122.36" x2="98.86" y2="122.36" gradientUnits="userSpaceOnUse">
            <stop offset="0" stop-color="#bdbec0" />
            <stop offset="0.25" stop-color="#c0c2c4" />
            <stop offset="0.56" stop-color="#cdcfd0" />
            <stop offset="0.89" stop-color="#e1e2e3" />
            <stop offset="1" stop-color="#e9e9e9" />
        </linearGradient>
    </defs>
    <title xmlns="http://www.w3.org/2000/svg">3D Circular Steps</title>
    <rect xmlns="http://www.w3.org/2000/svg" class="cls-1" width="300" height="300.33" />
    <g class="circular-steps">
        <g class="shades">
            <g class="left-circle-shadow">
                <g class="cls-34">
                    <path class="cls-5" d="M74.91,173.2a23,23,0,1,1,22.7-23A22.81,22.81,0,0,1,74.91,173.2ZM75,100.1a50.3,50.3,0,1,0,50.3,50.3A50.27,50.27,0,0,0,75,100.1Z" />
                    <path class="cls-35" d="M64,190.48a23,23,0,1,1,22.7-23A22.81,22.81,0,0,1,64,190.48Zm0.1-73.1a50.27,50.27,0,0,0-50.3,50.3c0,27.8,23.25,56,51.05,56s49.55-28.22,49.55-56A50.27,50.27,0,0,0,64.11,117.38Z" />
                    <g class="cls-36">
                        <path class="cls-37" d="M53.1,207.75a23,23,0,1,1,22.7-23A22.81,22.81,0,0,1,53.1,207.75Zm0.1-73.1A50.27,50.27,0,0,0,2.9,185c0,27.8,24,61.75,51.8,61.75s48.8-33.95,48.8-61.75A50.27,50.27,0,0,0,53.2,134.65Z" />
                    </g>
                </g>
                <g class="cls-38">
                    <path class="cls-39" d="M79,102.2c-27.8,0-54.3,22.5-54.3,50.3S50.5,208.75,85,205.58c27.68-2.55,44.3-25.28,44.3-53.08A50.27,50.27,0,0,0,79,102.2Zm-0.1,73.1a23,23,0,1,1,22.7-23A22.81,22.81,0,0,1,78.9,175.3Z" />
                </g>
            </g>
            <g class="right-circle-shadow">
                <g xmlns="http://www.w3.org/2000/svg" class="cls-9">
                    <path class="cls-5" d="M222.91,174.2a23,23,0,1,1,22.7-23A22.81,22.81,0,0,1,222.91,174.2Zm0.1-68.1c-27.8,0-50.3,17.5-50.3,45.3A50.27,50.27,0,0,0,223,201.7c27.8,0,40.3-22.5,40.3-50.3S250.81,106.1,223,106.1Z" />
                    <path class="cls-10" d="M222.07,175.53a23,23,0,1,1,22.7-23A22.81,22.81,0,0,1,222.07,175.53Zm0.1-68.29c-27.8,0-50.3,17.69-50.3,45.49a50.27,50.27,0,0,0,50.3,50.3c27.8,0,40.68-22.5,40.68-50.3S250,107.24,222.17,107.24Z" />
                    <path class="cls-11" d="M221.23,176.86a23,23,0,1,1,22.7-23A22.81,22.81,0,0,1,221.23,176.86Zm0.1-68.48c-27.8,0-50.3,17.88-50.3,45.68a50.27,50.27,0,0,0,50.3,50.3c27.8,0,41.07-22.5,41.07-50.3S249.13,108.37,221.33,108.37Z" />
                    <path class="cls-12" d="M220.4,178.19a23,23,0,1,1,22.7-23A22.81,22.81,0,0,1,220.4,178.19Zm0.1-68.68c-27.8,0-50.3,18.08-50.3,45.88a50.27,50.27,0,0,0,50.3,50.3c27.8,0,41.45-22.5,41.45-50.3S248.3,109.51,220.5,109.51Z" />
                    <path class="cls-13" d="M219.56,179.52a23,23,0,1,1,22.7-23A22.81,22.81,0,0,1,219.56,179.52Zm0.1-68.87c-27.8,0-50.3,18.27-50.3,46.07a50.27,50.27,0,0,0,50.3,50.3c27.8,0,41.84-22.5,41.84-50.3S247.46,110.65,219.66,110.65Z" />
                    <path class="cls-14" d="M218.72,180.85a23,23,0,1,1,22.7-23A22.81,22.81,0,0,1,218.72,180.85Zm0.1-69.06c-27.8,0-50.3,18.46-50.3,46.26a50.27,50.27,0,0,0,50.3,50.3c27.8,0,42.22-22.5,42.22-50.3S246.62,111.78,218.82,111.78Z" />
                    <path class="cls-15" d="M217.88,182.17a23,23,0,1,1,22.7-23A22.81,22.81,0,0,1,217.88,182.17Zm0.1-69.25c-27.8,0-50.3,18.65-50.3,46.45a50.27,50.27,0,0,0,50.3,50.3c27.8,0,42.61-22.5,42.61-50.3S245.78,112.92,218,112.92Z" />
                    <path class="cls-16" d="M217,183.5a23,23,0,1,1,22.7-23A22.81,22.81,0,0,1,217,183.5Zm0.1-69.45c-27.8,0-50.3,18.85-50.3,46.65a50.27,50.27,0,0,0,50.3,50.3c27.8,0,43-22.5,43-50.3S244.94,114.06,217.14,114.06Z" />
                    <path class="cls-17" d="M216.2,184.83a23,23,0,1,1,22.7-23A22.81,22.81,0,0,1,216.2,184.83Zm0.1-69.64c-27.8,0-50.3,19-50.3,46.84a50.27,50.27,0,0,0,50.3,50.3c27.8,0,43.38-22.5,43.38-50.3S244.1,115.19,216.3,115.19Z" />
                    <path class="cls-18" d="M215.36,186.16a23,23,0,1,1,22.7-23A22.81,22.81,0,0,1,215.36,186.16Zm0.1-69.83c-27.8,0-50.3,19.23-50.3,47a50.27,50.27,0,0,0,50.3,50.3c27.8,0,43.76-22.5,43.76-50.3S243.26,116.33,215.46,116.33Z" />
                    <path class="cls-19" d="M214.52,187.49a23,23,0,1,1,22.7-23A22.81,22.81,0,0,1,214.52,187.49Zm0.1-70c-27.8,0-50.3,19.42-50.3,47.22a50.27,50.27,0,0,0,50.3,50.3c27.8,0,44.15-22.5,44.15-50.3S242.42,117.47,214.62,117.47Z" />
                    <path class="cls-20" d="M213.68,188.82a23,23,0,1,1,22.7-23A22.81,22.81,0,0,1,213.68,188.82Zm0.1-70.22c-27.8,0-50.3,19.62-50.3,47.42a50.27,50.27,0,0,0,50.3,50.3c27.8,0,44.53-22.5,44.53-50.3S241.58,118.6,213.78,118.6Z" />
                    <path class="cls-21" d="M212.85,190.15a23,23,0,1,1,22.7-23A22.81,22.81,0,0,1,212.85,190.15Zm0.1-70.41c-27.8,0-50.3,19.81-50.3,47.61a50.27,50.27,0,0,0,50.3,50.3c27.8,0,44.92-22.5,44.92-50.3S240.75,119.74,212.95,119.74Z" />
                    <path class="cls-6" d="M212,191.48a23,23,0,1,1,22.7-23A22.81,22.81,0,0,1,212,191.48Zm0.1-70.6c-27.8,0-50.3,20-50.3,47.8a50.27,50.27,0,0,0,50.3,50.3c27.8,0,45.3-22.5,45.3-50.3S239.91,120.88,212.11,120.88Z" />
                    <path class="cls-22" d="M211.17,192.81a23,23,0,1,1,22.7-23A22.81,22.81,0,0,1,211.17,192.81Zm0.1-70.79c-27.8,0-50.3,20.19-50.3,48a50.27,50.27,0,0,0,50.3,50.3c27.8,0,45.68-22.5,45.68-50.3S239.07,122,211.27,122Z" />
                    <path class="cls-23" d="M210.33,194.14a23,23,0,1,1,22.7-23A22.81,22.81,0,0,1,210.33,194.14Zm0.1-71c-27.8,0-50.3,20.38-50.3,48.18a50.27,50.27,0,0,0,50.3,50.3c27.8,0,46.07-22.5,46.07-50.3S238.23,123.15,210.43,123.15Z" />
                    <path class="cls-24" d="M209.49,195.46a23,23,0,1,1,22.7-23A22.81,22.81,0,0,1,209.49,195.46Zm0.1-71.18c-27.8,0-50.3,20.58-50.3,48.38a50.27,50.27,0,0,0,50.3,50.3c27.8,0,46.45-22.5,46.45-50.3S237.39,124.29,209.59,124.29Z" />
                    <path class="cls-25" d="M208.65,196.79a23,23,0,1,1,22.7-23A22.81,22.81,0,0,1,208.65,196.79Zm0.1-71.37c-27.8,0-50.3,20.77-50.3,48.57a50.27,50.27,0,0,0,50.3,50.3c27.8,0,46.84-22.5,46.84-50.3S236.55,125.42,208.75,125.42Z" />
                    <path class="cls-26" d="M207.81,198.12a23,23,0,1,1,22.7-23A22.81,22.81,0,0,1,207.81,198.12Zm0.1-71.56c-27.8,0-50.3,21-50.3,48.76a50.27,50.27,0,0,0,50.3,50.3c27.8,0,47.22-22.5,47.22-50.3S235.71,126.56,207.91,126.56Z" />
                    <path class="cls-27" d="M207,199.45a23,23,0,1,1,22.7-23A22.81,22.81,0,0,1,207,199.45Zm0.1-71.75c-27.8,0-50.3,21.15-50.3,49a50.27,50.27,0,0,0,50.3,50.3c27.8,0,47.61-22.5,47.61-50.3S234.87,127.7,207.07,127.7Z" />
                    <path class="cls-28" d="M206.13,200.78a23,23,0,1,1,22.7-23A22.81,22.81,0,0,1,206.13,200.78Zm0.1-71.95c-27.8,0-50.3,21.35-50.3,49.15a50.27,50.27,0,0,0,50.3,50.3c27.8,0,48-22.5,48-50.3S234,128.83,206.23,128.83Z" />
                    <path class="cls-29" d="M205.29,202.11a23,23,0,1,1,22.7-23A22.81,22.81,0,0,1,205.29,202.11Zm0.1-72.14c-27.8,0-50.3,21.54-50.3,49.34a50.27,50.27,0,0,0,50.3,50.3c27.8,0,48.38-22.5,48.38-50.3S233.19,130,205.39,130Z" />
                    <path class="cls-30" d="M204.46,203.44a23,23,0,1,1,22.7-23A22.81,22.81,0,0,1,204.46,203.44Zm0.1-72.33c-27.8,0-50.3,21.73-50.3,49.53a50.27,50.27,0,0,0,50.3,50.3c27.8,0,48.76-22.5,48.76-50.3S232.36,131.11,204.56,131.11Z" />
                    <path class="cls-31" d="M203.62,204.77a23,23,0,1,1,22.7-23A22.81,22.81,0,0,1,203.62,204.77Zm0.1-72.52c-27.8,0-50.3,21.92-50.3,49.72a50.27,50.27,0,0,0,50.3,50.3c27.8,0,49.15-22.5,49.15-50.3S231.52,132.24,203.72,132.24Z" />
                    <path class="cls-32" d="M202.78,206.1a23,23,0,1,1,22.7-23A22.81,22.81,0,0,1,202.78,206.1Zm0.1-72.72a50.11,50.11,0,1,0,0,100.22c27.8,0,49.53-22.5,49.53-50.3S230.68,133.38,202.88,133.38Z" />
                    <path class="cls-33" d="M201.94,207.43a23,23,0,1,1,22.7-23A22.81,22.81,0,0,1,201.94,207.43Zm0.1-72.91A50.2,50.2,0,1,0,252,184.63,50.11,50.11,0,0,0,202,134.52Z" />
                    <path class="cls-8" d="M201.1,208.75a23,23,0,1,1,22.7-23A22.81,22.81,0,0,1,201.1,208.75Zm0.1-73.1A50.3,50.3,0,1,0,251.5,186,50.27,50.27,0,0,0,201.2,135.65Z" />
                </g>
                <g xmlns="http://www.w3.org/2000/svg" class="cls-2">
                    <path class="cls-3" d="M218,104.2c-27.8,0-54.3,22.5-54.3,50.3s26.5,56.3,54.3,56.3,50.3-28.5,50.3-56.3A50.27,50.27,0,0,0,218,104.2Zm-0.1,73.1a23,23,0,1,1,22.7-23A22.81,22.81,0,0,1,217.9,177.3Z" />
                </g>
            </g>
            <g xmlns="http://www.w3.org/2000/svg" class="cls-42 top-circle-shadow">
                <path class="cls-43" d="M170.51,35.8C133.4,29.5,95.76,47.57,86,68.9c-1.73,3.77-5.09,14.43-1.32,21.7l14.43,57,14.5,0.1h0V74.4c0-19.5,47.54-17,64.8,0" />
            </g>
            <g xmlns="http://www.w3.org/2000/svg" class="cls-4 bottom-circle-shadow">
                <path class="cls-5" d="M147.81,195.85a23,23,0,1,1,22.7-23A22.81,22.81,0,0,1,147.81,195.85Zm0.1-73.1a50.3,50.3,0,1,0,50.3,50.3A50.27,50.27,0,0,0,147.91,122.75Z" />
                <path class="cls-6" d="M137.91,230.19a23.57,23.57,0,1,1,23.26-23.57A23.38,23.38,0,0,1,137.91,230.19Zm0.1-77.42c-28.49,0-66.34,17.68-65.55,54.05,0.62,28.48,16,54.86,65.72,54.85,32.3,0,57.38-26.36,57.38-54.85S166.5,152.77,138,152.77Z" />
                <g class="cls-7">
                    <path class="cls-8" d="M128,264.53a24.15,24.15,0,1,1,23.83-24.14A23.95,23.95,0,0,1,128,264.53Zm0.1-81.74c-29.18,0-82.53,12.87-80.8,57.8,1.12,29.16,9.44,59.41,81.14,59.4,36.81,0,64.47-30.22,64.47-59.4S157.3,182.8,128.11,182.8Z" />
                </g>
            </g>
        </g>
        <g class="left-circle">
            <g>
                <path class="cls-40" d="M76,97.2a50.3,50.3,0,1,0,50.3,50.3A50.27,50.27,0,0,0,76,97.2Zm-0.1,73.1a23,23,0,1,1,22.7-23A22.81,22.81,0,0,1,75.9,170.3Z" />
                <text class="cls-41" transform="translate(55.7 158.33)">0<tspan x="19.9" y="0">4</tspan></text>
            </g>
            <path class="cls-46" d="M99.1,147.4l27.8-5.1c-2.2-25.9-23.9-45.2-50.3-45.2C53.5,97.1,34,111.6,28,132.8c6.7-13.9,19.9-23.4,35.1-23.4C81.5,109.4,99.2,125.5,99.1,147.4Z" />
            <path class="cls-49" d="M99.1,147.4l27.8-5.1c-3.4-26.17-24-45-50.37-45A50.07,50.07,0,0,0,28,132.8c6.7-13.9,19.9-23.4,35.1-23.4C81.5,109.4,99.2,125.5,99.1,147.4Z" />
        </g>
        <g class="right-circle">
            <g xmlns="http://www.w3.org/2000/svg">
                <path class="cls-47" d="M223.1,197.8a50.3,50.3,0,1,0-50.3-50.3A50.27,50.27,0,0,0,223.1,197.8Zm1.5-73.1a23,23,0,1,1-22.7,23A22.81,22.81,0,0,1,224.6,124.7Z" />
                <path class="cls-46" d="M272.3,136.6c0.1,1.4.2,2.8,0.2,4.2,0,24.4-17.2,43.5-38.1,43.5-18.8,0-31.2-15.7-34.3-36.6l-27.1.6A50.3,50.3,0,1,0,272.3,136.6Z" />
                <text class="cls-41" transform="translate(206.41 158.33)">02</text>
            </g>
        </g>
        <g class="top-semi-circle">
            <path xmlns="http://www.w3.org/2000/svg" class="cls-44" d="M149.7,38.3h-0.5a35.68,35.68,0,0,0-35.6,35.6V224.1a35.68,35.68,0,0,0,35.6,35.6h0.5a35.68,35.68,0,0,0,35.6-35.6V73.9A35.61,35.61,0,0,0,149.7,38.3Zm22.6,185.9c0,13.9-8.6,22.5-22.5,22.5h-0.5c-13.9,0-22.5-8.6-22.5-22.5V73.8c0-13.9,8.6-22.5,22.5-22.5h0.5c13.9,0,22.5,8.6,22.5,22.5V224.2Z" />
            <path xmlns="http://www.w3.org/2000/svg" class="cls-48" d="M113.6,147.7V74.4a35.64,35.64,0,0,1,35.5-35.5h0.7a35.64,35.64,0,0,1,35.5,35.5V149h14.5V74.5a50.15,50.15,0,0,0-50-50h-0.7a50.15,50.15,0,0,0-50,50v73.1l14.5,0.1h0Z" />
            <text xmlns="http://www.w3.org/2000/svg" class="cls-41" transform="translate(133.4 86.77)">01</text>
        </g>
        <g class="bottom-semi-circle">
            <path xmlns="http://www.w3.org/2000/svg" class="cls-45" d="M185.4,149v74.6a35.64,35.64,0,0,1-35.5,35.5h-0.7a35.64,35.64,0,0,1-35.5-35.5V147.4H99.2v76.1a50.15,50.15,0,0,0,50,50h0.7a50.15,50.15,0,0,0,50-50V149H185.4Z" />
            <text xmlns="http://www.w3.org/2000/svg" class="cls-41" transform="translate(131.56 233.43)">03</text>
        </g>
        <g class="center-infographic">
            <g xmlns="http://www.w3.org/2000/svg">
                <g class="cls-50">
                    <path d="M150.12,102.15c28.13,0,51.92,19.8,51.92,47.92S178.25,210,150.12,210,98.2,178.2,98.2,150.08,122,102.15,150.12,102.15Z" />
                </g>
                <g class="cls-51">
                    <path d="M150.12,104.15c28.13,0,44.92,17.8,44.92,45.92S178.25,202,150.12,202s-44.92-23.8-44.92-51.92S122,104.15,150.12,104.15Z" />
                </g>
                <circle class="cls-52" cx="149.55" cy="147.3" r="50.92" />
                <text class="cls-53" transform="translate(117.7 144.28)">INFOGRAPHIC</text>
                <text class="cls-53" transform="translate(120.3 154.96)">NEW DESIGN</text>
                <text class="cls-53" transform="translate(128.45 165.23)">DEOGAN</text>
                <text class="cls-54" transform="translate(132.06 128.4) scale(0.93 1)">|||||||||||||||||||||||||||||</text>
            </g>
        </g>
        <g class="content">
            <g xmlns="http://www.w3.org/2000/svg" id="_1" data-name="1">
                <path class="cls-55" d="M51.2,32.2a7,7,0,0,0-7,7c0,4.8,6.3,11.8,6.5,12.1a0.56,0.56,0,0,0,.9,0c0.3-.3,6.5-7.3,6.5-12.1A6.94,6.94,0,0,0,51.2,32.2Zm0,10.6a3.5,3.5,0,1,1,3.5-3.5A3.54,3.54,0,0,1,51.2,42.8Z" />
                <text class="cls-56" transform="translate(35.39 62.14)">YOUR<tspan x="15.81" y="0"></tspan><tspan x="17.24" y="0">TEX</tspan><tspan x="27.88" y="0">T</tspan></text>
                <rect class="cls-57" x="24.7" y="66.9" width="0.8" height="14.9" />
                <text class="cls-58" transform="translate(32.17 70.67)">Sample your text here</text>
                <text class="cls-58" transform="translate(27.77 75.87)">T<tspan x="2.16" y="0">ext here your sample text</tspan></text>
                <text class="cls-58" transform="translate(31.17 81.07)">here place for your text</text>
            </g>
            <g xmlns="http://www.w3.org/2000/svg">
                <path class="cls-59" d="M238,33.6V51.2h21.7V33.6H238Zm20.3,16.3h-19V35h19V49.9Zm-5.4-11.5a2,2,0,1,0,2-2,1.89,1.89,0,0,0-2,2h0ZM257,48.5H240.7l4.1-10.9,5.4,6.8,2.7-2Z" />
                <text class="cls-56" transform="translate(232.62 62.14)">YOUR<tspan x="15.81" y="0"></tspan><tspan x="17.24" y="0">TEX</tspan><tspan x="27.88" y="0">T</tspan></text>
                <rect class="cls-57" x="221.9" y="66.9" width="0.8" height="14.9" />
                <text class="cls-58" transform="translate(229.4 70.67)">Sample your text here</text>
                <text class="cls-58" transform="translate(224.9 75.87)">T<tspan x="2.16" y="0">ext here your sample text</tspan></text>
                <text class="cls-58" transform="translate(228.4 81.07)">here place for your text</text>
            </g>
            <g xmlns="http://www.w3.org/2000/svg">
                <path class="cls-59" d="M257.4,236.8l-6.1-6.1a7.56,7.56,0,0,0-11.9-9.1,7.57,7.57,0,0,0,0,10.7,7.45,7.45,0,0,0,9.1,1.2l6.1,6.1a2,2,0,0,0,2.8-2.8h0Zm-8.8-6a5.44,5.44,0,1,1,0-7.7,5.49,5.49,0,0,1,0,7.7h0Z" />
                <text class="cls-56" transform="translate(232.62 251.09)">YOUR<tspan x="15.81" y="0"></tspan><tspan x="17.24" y="0">TEX</tspan><tspan x="27.88" y="0">T</tspan></text>
                <rect class="cls-57" x="221.9" y="255.9" width="0.8" height="14.9" />
                <text class="cls-58" transform="translate(229.4 259.62)">Sample your text here</text>
                <text class="cls-58" transform="translate(224.9 264.82)">T<tspan x="2.16" y="0">ext here your sample text</tspan></text>
                <text class="cls-58" transform="translate(228.4 270.02)">here place for your text</text>
            </g>
            <g xmlns="http://www.w3.org/2000/svg" id="_4" data-name="4">
                <path class="cls-59" d="M56.5,231.5H56.3a3.6,3.6,0,0,0-1.1.2l-6.8-6.8a4.25,4.25,0,0,0,.2-1.1v-0.2a3.29,3.29,0,0,0-3.3-3.1,3.19,3.19,0,0,0-1.4.3l2.2,2.2a0.76,0.76,0,0,1,.2.4,1.28,1.28,0,0,1-.2,1.2,1.14,1.14,0,0,1-.8.3,0.6,0.6,0,0,1-.4-0.1c-0.1-.1-0.3-0.1-0.4-0.2l-2.2-2.2a3.19,3.19,0,0,0-.3,1.4,3.29,3.29,0,0,0,3.1,3.3h0.2a3.6,3.6,0,0,0,1.1-.2l6.8,6.8a4.25,4.25,0,0,0-.2,1.1V235a3.29,3.29,0,0,0,3.3,3.1,3.19,3.19,0,0,0,1.4-.3l-2.2-2.2c-0.1-.1-0.2-0.3-0.3-0.4a1.1,1.1,0,0,1,.3-1.2,1.14,1.14,0,0,1,.8-0.3,0.6,0.6,0,0,1,.4.1c0.1,0.1.3,0.1,0.4,0.2l2.2,2.2a3.33,3.33,0,0,0-2.8-4.7h0Z" />
                <text class="cls-56" transform="translate(36.77 251.09)">YOUR<tspan x="15.81" y="0"></tspan><tspan x="17.24" y="0">TEX</tspan><tspan x="27.88" y="0">T</tspan></text>
                <rect class="cls-57" x="26.1" y="255.9" width="0.8" height="14.9" />
                <text class="cls-58" transform="translate(33.55 259.62)">Sample your text here</text>
                <text class="cls-58" transform="translate(29.15 264.82)">T<tspan x="2.16" y="0">ext here your sample text</tspan></text>
                <text class="cls-58" transform="translate(32.55 270.02)">here place for your text</text>
            </g>
        </g>
    </g>
</svg>